<svg xmlns="http://www.w3.org/2000/svg" width="100" height="36" viewBox="0 0 100 36" fill="none">
  <path d="M19.5968 19.7705L24.6249 31.5028H14.3108L19.5968 19.7705Z" fill="white"/>
  <path d="M12.377 4.17041H21.5308L9.1538 31.5029H0L12.377 4.17041Z" fill="white"/>
  <path d="M95.7353 31.2448L91.2768 24.6863L90.6306 24.1047L84.6213 15.7369H88.9183L92.8922 21.4878L93.506 22.037L100 31.2448H95.7353ZM84.3305 31.2448L90.5983 22.5539L92.666 25.1063L88.466 31.2448H84.3305ZM93.8291 24.0401L91.7291 21.5201L95.6061 15.7369H99.7092L93.8291 24.0401Z" fill="white"/>
  <path d="M73.6663 31.5679C72.2662 31.5679 70.9955 31.2125 69.8539 30.5018C68.7339 29.791 67.84 28.8325 67.1723 27.6263C66.5261 26.3986 66.2031 25.0309 66.2031 23.5232C66.2031 21.9939 66.5261 20.6262 67.1723 19.42C67.84 18.1923 68.7339 17.2231 69.8539 16.5123C70.9955 15.78 72.2662 15.4138 73.6663 15.4138C74.8509 15.4138 75.8955 15.6723 76.8002 16.1892C77.7263 16.6846 78.4587 17.3738 78.9971 18.2569C79.5356 19.14 79.8048 20.1416 79.8048 21.2616V25.7201C79.8048 26.8402 79.5356 27.8417 78.9971 28.7248C78.4802 29.6079 77.7586 30.3079 76.8325 30.8248C75.9063 31.3202 74.8509 31.5679 73.6663 31.5679ZM74.2478 28.2079C75.5617 28.2079 76.6171 27.7663 77.414 26.8832C78.2325 26.0001 78.6417 24.8694 78.6417 23.4909C78.6417 22.5647 78.4587 21.7462 78.0925 21.0354C77.7263 20.3247 77.2094 19.7754 76.5417 19.3877C75.8955 18.9785 75.1309 18.7739 74.2478 18.7739C73.3863 18.7739 72.6216 18.9785 71.9539 19.3877C71.3078 19.7754 70.7908 20.3247 70.4031 21.0354C70.037 21.7462 69.8539 22.5647 69.8539 23.4909C69.8539 24.417 70.037 25.2355 70.4031 25.9463C70.7908 26.6571 71.3078 27.2171 71.9539 27.6263C72.6216 28.014 73.3863 28.2079 74.2478 28.2079ZM78.4156 31.2448V27.0771L79.0294 23.297L78.4156 19.5493V15.7369H81.9695V31.2448H78.4156Z" fill="white"/>
  <path d="M54.925 31.5679C53.5249 31.5679 52.2541 31.2125 51.1126 30.5018C49.9926 29.791 49.0987 28.8325 48.431 27.6263C47.7848 26.3986 47.4618 25.0309 47.4618 23.5232C47.4618 21.9939 47.7848 20.6262 48.431 19.42C49.0987 18.1923 49.9926 17.2231 51.1126 16.5123C52.2541 15.78 53.5249 15.4138 54.925 15.4138C56.1096 15.4138 57.1542 15.6723 58.0589 16.1892C58.985 16.6846 59.7174 17.3738 60.2558 18.2569C60.7943 19.14 61.0635 20.1416 61.0635 21.2616V25.7201C61.0635 26.8402 60.7943 27.8417 60.2558 28.7248C59.7389 29.6079 59.0173 30.3079 58.0912 30.8248C57.165 31.3202 56.1096 31.5679 54.925 31.5679ZM55.5065 28.2079C56.3896 28.2079 57.1542 28.014 57.8004 27.6263C58.4681 27.2171 58.985 26.6571 59.3512 25.9463C59.7174 25.2355 59.9004 24.417 59.9004 23.4909C59.9004 22.5647 59.7174 21.7462 59.3512 21.0354C58.985 20.3247 58.4681 19.7754 57.8004 19.3877C57.1542 18.9785 56.3896 18.7739 55.5065 18.7739C54.645 18.7739 53.8803 18.9785 53.2126 19.3877C52.5665 19.7754 52.0495 20.3247 51.6618 21.0354C51.2957 21.7462 51.1126 22.5647 51.1126 23.4909C51.1126 24.417 51.2957 25.2355 51.6618 25.9463C52.0495 26.6571 52.5665 27.2171 53.2126 27.6263C53.8803 28.014 54.645 28.2079 55.5065 28.2079ZM63.2282 31.2448H59.6743V27.0771L60.2881 23.297L59.6743 19.5493V7.98291H63.2282V31.2448Z" fill="white"/>
  <path d="M36.1837 31.5679C34.7836 31.5679 33.5128 31.2125 32.3713 30.5018C31.2513 29.791 30.3574 28.8325 29.6897 27.6263C29.0435 26.3986 28.7205 25.0309 28.7205 23.5232C28.7205 21.9939 29.0435 20.6262 29.6897 19.42C30.3574 18.1923 31.2513 17.2231 32.3713 16.5123C33.5128 15.78 34.7836 15.4138 36.1837 15.4138C37.3683 15.4138 38.4129 15.6723 39.3176 16.1892C40.2437 16.6846 40.9761 17.3738 41.5145 18.2569C42.053 19.14 42.3222 20.1416 42.3222 21.2616V25.7201C42.3222 26.8402 42.053 27.8417 41.5145 28.7248C40.9976 29.6079 40.276 30.3079 39.3499 30.8248C38.4237 31.3202 37.3683 31.5679 36.1837 31.5679ZM36.7652 28.2079C37.6483 28.2079 38.4129 28.014 39.0591 27.6263C39.7268 27.2171 40.2437 26.6571 40.6099 25.9463C40.9761 25.2355 41.1591 24.417 41.1591 23.4909C41.1591 22.5647 40.9761 21.7462 40.6099 21.0354C40.2437 20.3247 39.7268 19.7754 39.0591 19.3877C38.4129 18.9785 37.6483 18.7739 36.7652 18.7739C35.9037 18.7739 35.139 18.9785 34.4713 19.3877C33.8252 19.7754 33.3082 20.3247 32.9205 21.0354C32.5544 21.7462 32.3713 22.5647 32.3713 23.4909C32.3713 24.417 32.5544 25.2355 32.9205 25.9463C33.3082 26.6571 33.8252 27.2171 34.4713 27.6263C35.139 28.014 35.9037 28.2079 36.7652 28.2079ZM44.4869 31.2448H40.933V27.0771L41.5468 23.297L40.933 19.5493V7.98291H44.4869V31.2448Z" fill="white"/>
</svg>